<?xml version="1.0" encoding="utf-8"?>
<!-- Generator: Adobe Illustrator 18.0.0, SVG Export Plug-In . SVG Version: 6.00 Build 0)  -->
<!DOCTYPE svg PUBLIC "-//W3C//DTD SVG 1.1//EN" "http://www.w3.org/Graphics/SVG/1.1/DTD/svg11.dtd">
<svg version="1.1" id="Layer_1" xmlns="http://www.w3.org/2000/svg" xmlns:xlink="http://www.w3.org/1999/xlink" x="0px" y="0px"
	 viewBox="0 0 32 48" enable-background="new 0 0 32 48" xml:space="preserve">
<path fill="none" stroke="#12100E" stroke-width="1.1875" d="M7.1,20.8v6.8h1.2l2-1.5v2.4h10V20h-10v2.4l-2-1.5H7.1z"/>
<g>
	<path d="M26.1,14.7c-0.2,0-0.5,0-0.8,0C23.8,15,23,16,22.8,17.1h0c0.4-0.4,1-0.8,1.8-0.8c1.3,0,2.4,1,2.4,2.5
		c0,1.5-1.1,2.8-2.7,2.8c-1.9,0-2.9-1.4-2.9-3.4c0-1.5,0.5-2.7,1.4-3.5c0.7-0.7,1.7-1.1,2.8-1.2c0.3,0,0.6,0,0.7,0L26.1,14.7z
		 M25.4,18.9c0-0.9-0.5-1.5-1.4-1.5c-0.6,0-1,0.3-1.3,0.8c-0.1,0.1-0.1,0.3-0.1,0.5c0,1,0.5,1.9,1.5,1.9
		C25,20.5,25.4,19.9,25.4,18.9z"/>
</g>
</svg>
