<?xml version="1.0" encoding="utf-8"?>
<!-- Generator: Adobe Illustrator 18.0.0, SVG Export Plug-In . SVG Version: 6.00 Build 0)  -->
<!DOCTYPE svg PUBLIC "-//W3C//DTD SVG 1.1//EN" "http://www.w3.org/Graphics/SVG/1.1/DTD/svg11.dtd">
<svg version="1.1" id="Layer_1" xmlns="http://www.w3.org/2000/svg" xmlns:xlink="http://www.w3.org/1999/xlink" x="0px" y="0px"
	 viewBox="0 0 32 48" enable-background="new 0 0 32 48" xml:space="preserve">
<path fill="none" stroke="#12100E" stroke-width="1.1875" d="M7.1,20.8v6.8h1.2l2-1.5v2.4h10V20h-10v2.4l-2-1.5H7.1z"/>
<g>
	<path d="M21.7,20c0.3,0.2,1,0.5,1.8,0.5c1.1,0,1.6-0.6,1.6-1.2c0-0.9-0.9-1.3-1.8-1.3h-0.7v-1.1h0.7c0.7,0,1.5-0.3,1.5-1.1
		c0-0.5-0.4-1-1.2-1c-0.6,0-1.3,0.3-1.6,0.5l-0.3-1.1c0.4-0.3,1.3-0.6,2.2-0.6c1.6,0,2.4,0.9,2.4,1.9c0,0.8-0.5,1.5-1.4,1.8v0
		c0.9,0.2,1.7,0.9,1.7,1.9c0,1.3-1.1,2.4-3,2.4c-0.9,0-1.8-0.3-2.2-0.5L21.7,20z"/>
</g>
</svg>
