<?xml version="1.0" encoding="utf-8"?>
<!-- Generator: Adobe Illustrator 18.0.0, SVG Export Plug-In . SVG Version: 6.00 Build 0)  -->
<!DOCTYPE svg PUBLIC "-//W3C//DTD SVG 1.1//EN" "http://www.w3.org/Graphics/SVG/1.1/DTD/svg11.dtd">
<svg version="1.1" id="Layer_1" xmlns="http://www.w3.org/2000/svg" xmlns:xlink="http://www.w3.org/1999/xlink" x="0px" y="0px"
	 viewBox="0 0 32 48" enable-background="new 0 0 32 48" xml:space="preserve">
<path d="M22.7,22.4L20.2,25l-2.5-2.5l-0.8,0.8l3.4,3.4l3.4-3.4L22.7,22.4z"/>
<path d="M14.4,29.1c-1,0-2-0.3-2.9-0.9c-0.8-0.6-1.5-1.4-1.9-2.3c-0.4-0.9-0.5-2-0.3-3c0.2-1,0.7-1.9,1.4-2.6
	c0.7-0.7,1.6-1.2,2.6-1.4c1-0.2,2-0.1,3,0.3c0.9,0.4,1.7,1,2.3,1.9c0.6,0.8,0.9,1.8,0.9,2.9c0,0.4,0,0.8-0.1,1.1h1.2
	c0.1-0.4,0.1-0.7,0.1-1.1c0-1.3-0.4-2.5-1.1-3.5s-1.7-1.9-2.8-2.3c-1.2-0.5-2.4-0.6-3.7-0.4c-1.2,0.2-2.4,0.8-3.2,1.7
	c-0.9,0.9-1.5,2-1.7,3.2c-0.2,1.2-0.1,2.5,0.4,3.7c0.5,1.2,1.3,2.1,2.3,2.8s2.3,1.1,3.5,1.1V29.1z"/>
</svg>
