<?xml version="1.0" encoding="utf-8"?>
<!-- Generator: Adobe Illustrator 18.0.0, SVG Export Plug-In . SVG Version: 6.00 Build 0)  -->
<!DOCTYPE svg PUBLIC "-//W3C//DTD SVG 1.1//EN" "http://www.w3.org/Graphics/SVG/1.1/DTD/svg11.dtd">
<svg version="1.1" id="Layer_1" xmlns="http://www.w3.org/2000/svg" xmlns:xlink="http://www.w3.org/1999/xlink" x="0px" y="0px"
	 viewBox="0 0 30 30" enable-background="new 0 0 30 30" xml:space="preserve">
<path d="M25.7,3.1H4.3c-1,0-1.8,0.8-1.8,1.8v21.3c0,1,0.8,1.8,1.8,1.8h21.3c1,0,1.8-0.8,1.8-1.8V4.8C27.4,3.9,26.6,3.1,25.7,3.1z
	 M25.7,26.2H4.3V4.8h21.3V26.2z"/>
<path d="M12,20c0.3,0.2,0.7,0.2,1.1,0.1l7.8-3.6c0.6-0.3,0.8-0.9,0.6-1.5c-0.1-0.3-0.3-0.5-0.6-0.6l0,0l-7.8-3.6
	c-0.6-0.3-1.3,0-1.5,0.6c-0.1,0.2-0.1,0.3-0.1,0.5v7.1C11.5,19.4,11.7,19.8,12,20z M12.9,12.4l6.9,3.1l-6.9,3.1V12.4z"/>
<rect x="6.1" y="5.7" width="1.8" height="2.7"/>
<rect x="11.4" y="5.7" width="1.8" height="2.7"/>
<rect x="16.8" y="5.7" width="1.8" height="2.7"/>
<rect x="22.1" y="5.7" width="1.8" height="2.7"/>
<rect x="6.1" y="22.6" width="1.8" height="2.7"/>
<rect x="11.4" y="22.6" width="1.8" height="2.7"/>
<rect x="16.8" y="22.6" width="1.8" height="2.7"/>
<rect x="22.1" y="22.6" width="1.8" height="2.7"/>
<rect x="-1" y="-0.5" fill-opacity="0" width="32" height="32"/>
</svg>
