<?xml version="1.0" encoding="utf-8"?>
<!-- Generator: Adobe Illustrator 18.0.0, SVG Export Plug-In . SVG Version: 6.00 Build 0)  -->
<!DOCTYPE svg PUBLIC "-//W3C//DTD SVG 1.1//EN" "http://www.w3.org/Graphics/SVG/1.1/DTD/svg11.dtd">
<svg version="1.1" id="Layer_1" xmlns="http://www.w3.org/2000/svg" xmlns:xlink="http://www.w3.org/1999/xlink" x="0px" y="0px"
	 viewBox="0 0 30 30" enable-background="new 0 0 30 30" xml:space="preserve">
<path display="none" d="M18.5,1.3l1.8,1.8c-0.7,0.7-1.5,1.3-2.4,1.6C17,5.1,16,5.3,15,5.3c-1,0-2-0.2-2.9-0.6
	c-0.9-0.4-1.7-0.9-2.4-1.6l1.8-1.8c0.9,0.9,2.2,1.5,3.5,1.5c0.7,0,1.3-0.1,1.9-0.4C17.5,2.1,18.1,1.8,18.5,1.3z"/>
<path display="none" d="M22.1,4.8l1.8,1.8c-2.3,2.3-5.5,3.7-8.8,3.7c-3.3,0-6.5-1.3-8.8-3.7l1.8-1.8c0.9,0.9,2,1.7,3.2,2.2
	c1.2,0.5,2.5,0.8,3.8,0.8c1.3,0,2.6-0.3,3.8-0.8C20,6.5,21.1,5.7,22.1,4.8z"/>
<path display="none" d="M22.5,13.8h-5c0,0.7-0.3,1.3-0.7,1.8s-1.1,0.7-1.8,0.7s-1.3-0.3-1.8-0.7s-0.7-1.1-0.7-1.8h-5
	c-0.7,0-1.3,0.3-1.8,0.7C5.3,15,5,15.6,5,16.3v11.3h20V16.3c0-0.7-0.3-1.3-0.7-1.8C23.8,14,23.2,13.8,22.5,13.8z M7.5,26.5v-9.8h15
	v9.8H7.5z"/>
<path display="none" d="M16.3,13.8c0,0.7-0.6,1.3-1.3,1.3s-1.3-0.6-1.3-1.3s0.6-1.3,1.3-1.3S16.3,13.1,16.3,13.8z"/>
<path d="M23.2,19.9c0.4,0.4,1.1,0.4,1.5-0.1c2-2.2,3.1-5.1,3.1-8.2s-1.1-6-3.1-8.2c-0.5-0.5-1.1-0.5-1.5-0.1c-0.4,0.4-0.3,1,0.2,1.5
	c1.6,1.8,2.5,4.2,2.5,6.8s-0.9,5-2.5,6.8C22.9,18.9,22.8,19.4,23.2,19.9z M6.8,19.9c0.4-0.4,0.3-1-0.2-1.5c-1.6-1.8-2.5-4.2-2.5-6.8
	s0.9-5,2.5-6.8c0.4-0.5,0.6-1.1,0.2-1.5C6.5,2.9,5.8,2.9,5.3,3.4c-2,2.2-3.1,5.1-3.1,8.2s1.1,6,3.1,8.2C5.8,20.3,6.5,20.3,6.8,19.9z
	 M10.5,16.4c0.4-0.4,0.2-1-0.2-1.5c-0.7-0.9-1.1-2.1-1.1-3.3s0.4-2.4,1.1-3.3c0.4-0.5,0.5-1.1,0.2-1.5c-0.4-0.5-1.1-0.5-1.5,0.1
	c-1.1,1.3-1.7,3-1.7,4.7s0.6,3.4,1.7,4.7C9.3,16.9,10.1,16.9,10.5,16.4z M19.5,16.4c0.4,0.5,1.1,0.5,1.6-0.1c1.1-1.3,1.7-3,1.7-4.7
	s-0.6-3.4-1.7-4.7c-0.4-0.6-1.1-0.5-1.6-0.1c-0.4,0.4-0.2,1,0.2,1.5c0.7,0.9,1.1,2.1,1.1,3.3s-0.4,2.4-1.1,3.3
	C19.3,15.4,19.1,16,19.5,16.4z M15,27.5c0.6,0,0.9-0.4,0.9-1V13.6c0.7-0.4,1.2-1.1,1.2-2c0-1.2-1-2.2-2.2-2.2c-1.2,0-2.2,1-2.2,2.2
	c0,0.9,0.5,1.6,1.2,2v12.9C14.1,27,14.5,27.5,15,27.5z"/>
</svg>
