<?xml version="1.0" encoding="utf-8"?>
<!-- Generator: Adobe Illustrator 18.0.0, SVG Export Plug-In . SVG Version: 6.00 Build 0)  -->
<!DOCTYPE svg PUBLIC "-//W3C//DTD SVG 1.1//EN" "http://www.w3.org/Graphics/SVG/1.1/DTD/svg11.dtd">
<svg version="1.1" id="Layer_1" xmlns="http://www.w3.org/2000/svg" xmlns:xlink="http://www.w3.org/1999/xlink" x="0px" y="0px"
	 viewBox="0 0 30 30" enable-background="new 0 0 30 30" xml:space="preserve">
<g id="layer1">
	<path fill="#222222" d="M14.3,3.3c-0.1,0-0.2,0-0.3,0.1L3.7,9.2C3.5,9.3,3.3,9.5,3.3,9.7v11.5c0,0.2,0.1,0.4,0.3,0.6l10.3,5.8
		c0.2,0.1,0.4,0.1,0.6,0l10.3-5.8c0.2-0.1,0.3-0.3,0.3-0.6V9.7c0-0.2-0.1-0.4-0.3-0.6L14.6,3.4C14.5,3.3,14.4,3.3,14.3,3.3z
		 M14.3,4.7l9,5l-9,5l-9-5L14.3,4.7z M4.6,10.8l9,5.1v10.1l-9-5.1V10.8z M23.9,10.8v10.1l-9,5.1V15.9L23.9,10.8z"/>
</g>
</svg>
