<?xml version="1.0" encoding="utf-8"?>
<!-- Generator: Adobe Illustrator 18.0.0, SVG Export Plug-In . SVG Version: 6.00 Build 0)  -->
<!DOCTYPE svg PUBLIC "-//W3C//DTD SVG 1.1//EN" "http://www.w3.org/Graphics/SVG/1.1/DTD/svg11.dtd">
<svg version="1.1" id="Layer_1" xmlns="http://www.w3.org/2000/svg" xmlns:xlink="http://www.w3.org/1999/xlink" x="0px" y="0px"
	 viewBox="0 0 30 30" enable-background="new 0 0 30 30" xml:space="preserve">
<g id="SVGRepo_iconCarrier">
	<title>battery-100</title>
	<path d="M12.1,2.9c-0.8,0-1,0.2-1,1v0.8H8.7c-1.5,0-1.8,0.3-1.8,1.8v19.6c0,1.5,0.3,1.8,1.8,1.8h12.6c1.5,0,1.8-0.3,1.8-1.8V6.6
		c0-1.5-0.3-1.8-1.8-1.8h-2.4V4c0-0.9-0.3-1-1-1L12.1,2.9L12.1,2.9z M8.7,8.4c0-2.1-0.3-1.8,1.8-1.8c1,0,8.1,0,8.9,0
		c2.1,0,1.8-0.3,1.8,1.8c0,1,0,14.9,0,16c0,2.1,0.3,1.8-1.8,1.8c-1,0-7.9,0-8.9,0c-2.1,0-1.8,0.3-1.8-1.8C8.7,23.4,8.7,9.5,8.7,8.4z
		 M10,7.4H20c0.3,0,0.5,0.2,0.5,0.5v2.9c0,0.3-0.2,0.5-0.5,0.5H10c-0.3,0-0.5-0.2-0.5-0.5V7.9C9.5,7.6,9.7,7.4,10,7.4z M10,12.1H20
		c0.3,0,0.5,0.2,0.5,0.5v2.9c0,0.3-0.2,0.5-0.5,0.5H10c-0.3,0-0.5-0.2-0.5-0.5v-2.9C9.5,12.3,9.7,12.1,10,12.1z M10,16.8H20
		c0.3,0,0.5,0.2,0.5,0.5v2.9c0,0.3-0.2,0.5-0.5,0.5H10c-0.3,0-0.5-0.2-0.5-0.5v-2.9C9.5,17,9.7,16.8,10,16.8z M10,21.5H20
		c0.3,0,0.5,0.2,0.5,0.5v2.9c0,0.3-0.2,0.5-0.5,0.5H10c-0.3,0-0.5-0.2-0.5-0.5V22C9.5,21.8,9.7,21.5,10,21.5z"/>
</g>
</svg>
