<?xml version="1.0" encoding="utf-8"?>
<!-- Generator: Adobe Illustrator 18.0.0, SVG Export Plug-In . SVG Version: 6.00 Build 0)  -->
<!DOCTYPE svg PUBLIC "-//W3C//DTD SVG 1.1//EN" "http://www.w3.org/Graphics/SVG/1.1/DTD/svg11.dtd">
<svg version="1.1" id="Layer_1" xmlns="http://www.w3.org/2000/svg" xmlns:xlink="http://www.w3.org/1999/xlink" x="0px" y="0px"
	 viewBox="0 0 30 30" enable-background="new 0 0 30 30" xml:space="preserve">
<g>
	<path d="M14.4,17.9L14.4,17.9c-0.2,0-0.4,0.2-0.4,0.4s0.2,0.4,0.4,0.4s0.4-0.2,0.4-0.4S14.6,17.9,14.4,17.9z"/>
	<path d="M27,25.1l-9.9-6.2c0,0,0,0,0,0l-0.7-0.5c0,0,0-0.1,0-0.1c0-1.1-0.7-2-1.7-2.2v-0.6l3-1.4c0.5-0.2,0.7-0.7,0.6-1.3
		c0,0,0,0,0,0L16.1,2.8c-0.1-0.5-0.5-0.9-1-0.9C14.5,1.9,14,2.4,14,3v12.3c0,0,0,0,0,0v0.8c-0.9,0.2-1.6,1.1-1.6,2.2
		c0,0.3,0.1,0.6,0.1,0.8L12,19.5l-2.8-1.8c-0.4-0.3-1-0.2-1.3,0.2c0,0,0,0,0,0l-6.4,7.8c-0.4,0.4-0.4,1-0.1,1.5
		c0.2,0.3,0.4,0.4,0.7,0.5c0.1,0,0.1,0,0.2,0c0.2,0,0.4-0.1,0.6-0.2l9.3-7c0,0,0,0,0,0l0.7-0.5c0.4,0.4,0.9,0.7,1.5,0.7
		c0.8,0,1.5-0.5,1.8-1.2l0.3,0.2L16.2,23c-0.1,0.5,0.2,1,0.7,1.2c0,0,0,0,0,0l9.2,2.9c0.1,0,0.2,0.1,0.3,0.1c0.4,0,0.7-0.2,0.9-0.6
		C27.7,26.1,27.5,25.4,27,25.1z M14.8,3c0-0.2,0.1-0.3,0.3-0.3c0.1,0,0.3,0.1,0.3,0.3c0,0,0,0,0,0L17.6,13c0,0.1,0,0.3-0.2,0.3
		l-2.7,1.3V3z M2.5,26.7c-0.1,0-0.1,0.1-0.2,0.1c-0.1,0-0.1-0.1-0.2-0.1c-0.1-0.1-0.1-0.3,0-0.4c0,0,0,0,0,0l6.4-7.8
		c0.1-0.1,0.2-0.1,0.4,0l2.5,1.6L2.5,26.7z M14.4,19.7c-0.7,0-1.3-0.6-1.3-1.4s0.6-1.4,1.3-1.4s1.3,0.6,1.3,1.4c0,0,0,0.1,0,0.1
		c0,0.1-0.1,0.2,0,0.2C15.4,19.3,15,19.7,14.4,19.7z M26.8,26.2c-0.1,0.1-0.2,0.2-0.3,0.1c0,0,0,0,0,0l-9.2-2.9
		C17,23.4,17,23.3,17,23.1l0.3-3.2l9.4,5.8C26.8,25.9,26.8,26.1,26.8,26.2z"/>
</g>
</svg>
