<?xml version="1.0" encoding="utf-8"?>
<!-- Generator: Adobe Illustrator 18.0.0, SVG Export Plug-In . SVG Version: 6.00 Build 0)  -->
<!DOCTYPE svg PUBLIC "-//W3C//DTD SVG 1.1//EN" "http://www.w3.org/Graphics/SVG/1.1/DTD/svg11.dtd">
<svg version="1.1" id="Layer_1" xmlns="http://www.w3.org/2000/svg" xmlns:xlink="http://www.w3.org/1999/xlink" x="0px" y="0px"
	 viewBox="0 0 30 30" enable-background="new 0 0 30 30" xml:space="preserve">
<path id="hunting-stand" d="M8,3.4v8.4c0,0.3,0.3,0.7,0.7,0.7h11.7c0.3,0,0.7-0.3,0.7-0.7V3.4c0-0.3-0.3-0.7-0.7-0.7H8.7
	C8.4,2.7,8,3.1,8,3.4z M5.9,15.1L5.9,15.1c0,0.3,0.3,0.7,0.7,0.7H8c0.4,0,0.7,0.4,0.7,0.8L6.9,26.7c-0.1,0.4,0.2,0.8,0.7,0.8h0.2
	c0.3,0,0.6-0.2,0.7-0.6l2-10.6c0.1-0.3,0.3-0.6,0.7-0.6h7.1c0.3,0,0.6,0.2,0.7,0.6l2,10.6c0.1,0.3,0.3,0.6,0.7,0.6h0.2
	c0.4,0,0.7-0.4,0.7-0.8l-2-10.1c-0.1-0.4,0.2-0.8,0.7-0.8h1.5c0.3,0,0.7-0.3,0.7-0.7l0,0c0-0.3-0.3-0.7-0.7-0.7h-16
	C6.2,14.4,5.9,14.7,5.9,15.1z"/>
</svg>
