<?xml version="1.0" encoding="utf-8"?>
<!-- Generator: Adobe Illustrator 18.0.0, SVG Export Plug-In . SVG Version: 6.00 Build 0)  -->
<!DOCTYPE svg PUBLIC "-//W3C//DTD SVG 1.1//EN" "http://www.w3.org/Graphics/SVG/1.1/DTD/svg11.dtd">
<svg version="1.1" id="Layer_1" xmlns="http://www.w3.org/2000/svg" xmlns:xlink="http://www.w3.org/1999/xlink" x="0px" y="0px"
	 viewBox="0 0 30 30" enable-background="new 0 0 30 30" xml:space="preserve">
<path d="M18.5,2.3l1.8,1.8c-0.7,0.7-1.5,1.3-2.4,1.6C17,6.1,16,6.3,15,6.3c-1,0-2-0.2-2.9-0.6c-0.9-0.4-1.7-0.9-2.4-1.6l1.8-1.8
	c0.9,0.9,2.2,1.5,3.5,1.5c0.7,0,1.3-0.1,1.9-0.4C17.5,3.1,18.1,2.8,18.5,2.3z"/>
<path d="M22.1,5.8l1.8,1.8c-2.3,2.3-5.5,3.7-8.8,3.7c-3.3,0-6.5-1.3-8.8-3.7l1.8-1.8c0.9,0.9,2,1.7,3.2,2.2c1.2,0.5,2.5,0.8,3.8,0.8
	c1.3,0,2.6-0.3,3.8-0.8C20,7.5,21.1,6.7,22.1,5.8z"/>
<path d="M22.5,13.8h-5c0,0.7-0.3,1.3-0.7,1.8s-1.1,0.7-1.8,0.7s-1.3-0.3-1.8-0.7s-0.7-1.1-0.7-1.8h-5c-0.7,0-1.3,0.3-1.8,0.7
	C5.3,15,5,15.6,5,16.3v11.3h20V16.3c0-0.7-0.3-1.3-0.7-1.8C23.8,14,23.2,13.8,22.5,13.8z M7.5,26.5v-9.8h15v9.8H7.5z"/>
<path d="M16.3,13.8c0,0.7-0.6,1.3-1.3,1.3s-1.3-0.6-1.3-1.3s0.6-1.3,1.3-1.3S16.3,13.1,16.3,13.8z"/>
</svg>
