<?xml version="1.0" encoding="utf-8"?>
<!-- Generator: Adobe Illustrator 18.0.0, SVG Export Plug-In . SVG Version: 6.00 Build 0)  -->
<!DOCTYPE svg PUBLIC "-//W3C//DTD SVG 1.1//EN" "http://www.w3.org/Graphics/SVG/1.1/DTD/svg11.dtd">
<svg version="1.1" id="Capa_1" xmlns="http://www.w3.org/2000/svg" xmlns:xlink="http://www.w3.org/1999/xlink" x="0px" y="0px"
	 viewBox="0 0 30 30" enable-background="new 0 0 30 30" xml:space="preserve">
<g>
	<g>
		<polygon points="18.6,6.7 11.4,6.7 11.1,14 18.9,14 		"/>
		<path d="M20.9,16l0.3,7.3h8.6c-0.4-2.4-0.7-4.9-1.1-7.3L20.9,16L20.9,16z"/>
		<polygon points="11,16 10.8,23.3 19.2,23.3 19,16 		"/>
		<path d="M27.3,6.7h-6.7l0.3,7.3h7.5C28,11.6,27.6,9.2,27.3,6.7z"/>
		<path d="M2.1,10.7C2,11.8,1.8,12.9,1.7,14h7.5l0.3-7.3H2.7L2.1,10.7z"/>
		<path d="M0.3,23.3h8.6L9.1,16H1.4C1,18.4,0.6,20.8,0.3,23.3z"/>
	</g>
</g>
</svg>
