<?xml version="1.0" encoding="utf-8"?>
<!-- Generator: Adobe Illustrator 18.0.0, SVG Export Plug-In . SVG Version: 6.00 Build 0)  -->
<!DOCTYPE svg PUBLIC "-//W3C//DTD SVG 1.1//EN" "http://www.w3.org/Graphics/SVG/1.1/DTD/svg11.dtd">
<svg version="1.1" id="Layer_1" xmlns="http://www.w3.org/2000/svg" xmlns:xlink="http://www.w3.org/1999/xlink" x="0px" y="0px"
	 viewBox="0 0 44 37" enable-background="new 0 0 44 37" xml:space="preserve">
<title>logo-stroke</title>
<desc>Created with Sketch.</desc>
<path d="M9.8,15.4L5.2,9.5C4.5,8.5,3.3,8,2.1,8H0.4v14h3.8v-7.7L9,20.3c0.8,1,2,1.6,3.3,1.6h1.3V8H9.8V15.4z"/>
<path d="M34.9,9.6C34.3,8.6,33.2,8,32,8h-2.6l4.2,6.2l2.2-3.3L34.9,9.6z"/>
<path d="M38.6,14.8L43.2,8h-2.8c-1,0-1.9,0.5-2.5,1.3l-6.1,9.3l-11.5,0v-2.2h6.7v-3.1h-6.7v-2.1h7.4V8H16.5v14h12.7h2.2h1l0,0
	c1.2-0.1,2-0.9,2.6-1.7l1.5-2.4l1.4,2.5c0.6,1,1.7,1.6,2.9,1.6h2.6L38.6,14.8z"/>
<path d="M0.5,23.9h1.6c0.5,0,0.9,0.1,1.1,0.4c0.2,0.2,0.3,0.5,0.3,0.8v0c0,0.5-0.3,0.9-0.7,1l0.8,1.2H2.5l-0.7-1h0H1.4v1H0.5V23.9z
	 M2,25.6c0.3,0,0.5-0.2,0.5-0.4v0c0-0.3-0.2-0.4-0.5-0.4H1.4v0.8H2z"/>
<polygon points="7.2,23.9 10,23.9 10,24.7 8.2,24.7 8.2,25.3 9.8,25.3 9.8,26 8.2,26 8.2,26.5 10,26.5 10,27.3 7.2,27.3 "/>
<path d="M14.8,23.9h0.9l1.5,3.4h-1l-0.2-0.6h-1.3l-0.2,0.6h-1L14.8,23.9z M15.6,26l-0.4-1l-0.4,1H15.6z"/>
<polygon points="20.5,23.9 21.5,23.9 21.5,26.5 23.1,26.5 23.1,27.3 20.5,27.3 "/>
<rect x="28" y="23.9" width="1" height="3.4"/>
<polygon points="34.6,24.8 33.6,24.8 33.6,23.9 36.5,23.9 36.5,24.8 35.5,24.8 35.5,27.3 34.6,27.3 "/>
<polygon points="41.2,26.1 39.9,23.9 41,23.9 41.7,25.2 42.4,23.9 43.4,23.9 42.1,26.1 42.1,27.3 41.2,27.3 "/>
</svg>
