<?xml version="1.0" encoding="utf-8"?>
<!-- Generator: Adobe Illustrator 18.0.0, SVG Export Plug-In . SVG Version: 6.00 Build 0)  -->
<!DOCTYPE svg PUBLIC "-//W3C//DTD SVG 1.1//EN" "http://www.w3.org/Graphics/SVG/1.1/DTD/svg11.dtd">
<svg version="1.1" id="Layer_1" xmlns="http://www.w3.org/2000/svg" xmlns:xlink="http://www.w3.org/1999/xlink" x="0px" y="0px"
	 viewBox="0 0 384 358" enable-background="new 0 0 384 358" xml:space="preserve">
<title>pfc_logowtext</title>
<desc>Created with Sketch.</desc>
<line fill="#FFFFFF" x1="-102.6" y1="-179" x2="-102.6" y2="537"/>
<line fill="#FFFFFF" x1="487.6" y1="537" x2="487.6" y2="-179"/>
<path fill="#FFFFFF" d="M87.5,159.2L48,108.5c-6.6-8.4-16.7-13.4-27.3-13.4H6.3v121.2h33.2v-66.5l40.8,52.4
	c6.9,8.9,17.5,14.1,28.8,14.1h11.6V95.1H87.5V159.2z"/>
<path fill="#FFFFFF" d="M304.8,108.8c-5.4-8.5-14.8-13.7-24.9-13.7h-22.4l36,53.8l18.6-28.4L304.8,108.8z"/>
<path fill="#FFFFFF" d="M337.2,154.3L377,95.1h-23.9c-8.6,0-16.6,4.4-21.2,11.7l-53.1,80.9l-99.9,0v-19.2h58.2V142h-58.2v-18.4h64.2
	V95.1h-97.5v121.2h110.1h18.8h9.1l0,0c10.6-0.7,17.6-7.5,22.3-14.8l13.2-20.6l12.2,21.6c5.5,8.6,14.9,13.8,25.1,13.8h22.2
	L337.2,154.3z"/>
<path fill="#FFFFFF" d="M6.6,233.3h14c4.5,0,7.6,1.2,9.6,3.2c1.7,1.7,2.6,4,2.6,6.9v0.1c0,4.5-2.4,7.5-6.1,9.1l7.1,10.3h-9.5l-6-9
	h-0.1h-3.5v9H6.6V233.3z M20.3,247.5c2.8,0,4.4-1.4,4.4-3.5v-0.1c0-2.3-1.7-3.5-4.4-3.5h-5.4v7.1H20.3z"/>
<polygon fill="#FFFFFF" points="65.4,233.3 89.2,233.3 89.2,240.3 73.6,240.3 73.6,244.8 87.8,244.8 87.8,251.2 73.6,251.2 
	73.6,255.9 89.4,255.9 89.4,262.9 65.4,262.9 "/>
<path fill="#FFFFFF" d="M130.7,233.1h7.9l12.6,29.8h-8.8l-2.2-5.3h-11.4l-2.1,5.3h-8.6L130.7,233.1z M137.9,251.2l-3.3-8.4l-3.3,8.4
	H137.9z"/>
<polygon fill="#FFFFFF" points="180.6,233.3 188.8,233.3 188.8,255.7 203.1,255.7 203.1,262.9 180.6,262.9 "/>
<rect x="244.9" y="233.3" fill="#FFFFFF" width="8.2" height="29.6"/>
<polygon fill="#FFFFFF" points="302.1,240.5 293.2,240.5 293.2,233.3 319.2,233.3 319.2,240.5 310.3,240.5 310.3,262.9 302.1,262.9 
	"/>
<polygon fill="#FFFFFF" points="359.3,251.8 348,233.3 357.3,233.3 363.4,244.1 369.6,233.3 378.7,233.3 367.5,251.7 367.5,262.9 
	359.3,262.9 "/>
<line fill="#FFFFFF" x1="-102.6" y1="537" x2="-102.6" y2="-179"/>
<line fill="#FFFFFF" x1="487.6" y1="-179" x2="487.6" y2="537"/>
</svg>
