<?xml version="1.0" encoding="utf-8"?>
<!-- Generator: Adobe Illustrator 18.0.0, SVG Export Plug-In . SVG Version: 6.00 Build 0)  -->
<!DOCTYPE svg PUBLIC "-//W3C//DTD SVG 1.1//EN" "http://www.w3.org/Graphics/SVG/1.1/DTD/svg11.dtd">
<svg version="1.1" id="Layer_1" xmlns="http://www.w3.org/2000/svg" xmlns:xlink="http://www.w3.org/1999/xlink" x="0px" y="0px"
	 viewBox="0 0 612 792" enable-background="new 0 0 612 792" xml:space="preserve">
<path d="M275.3,310.6c1.5-0.7,3.3,0,4,1.6c0.2,0.4,0.3,0.8,0.3,1.3v24.4c0,5.8,4.7,10.6,10.6,10.6c14.1,0,42.6,0.1,69.8,17.4
	c20.8,13.2,42.1,37.2,54.9,82c-21.6-20.8-46.2-32.1-67.8-38.1c-13.3-3.7-26.9-5.8-40.7-6.5c-5.6-0.2-11.3-0.2-16.9,0.2h-0.3l-0.1,0
	h0l1,10.5l-1.1-10.5c-5.4,0.5-9.5,5.1-9.5,10.5v24.4c0,2.3-2.3,3.7-4.3,2.8L191,379.2c-0.3-0.2-0.6-0.4-0.9-0.6
	c-1.5-0.9-1.9-2.8-1.1-4.3c0.3-0.4,0.6-0.8,1.1-1.1c0.3-0.2,0.6-0.4,0.9-0.6L275.3,310.6z M300.8,424.3c1.4,0,3,0.1,4.7,0.1
	c9.2,0.4,21.9,1.8,36,5.7c28.1,7.8,61.3,25.4,83.4,65.2c2.8,5.1,9.3,6.9,14.4,4.1c3.8-2.1,5.9-6.3,5.4-10.6
	c-9.8-78.5-39.9-119.8-73.2-140.9c-26.3-16.7-53.5-19.9-70.6-20.5v-14c0-13.4-10.8-24.2-24.2-24.2c-4.7,0-9.3,1.4-13.2,3.9
	l-84.5,62.2c-11.4,7.1-14.8,22.1-7.7,33.4c2,3.1,4.6,5.8,7.7,7.7l84.5,62.2c11.2,7.3,26.2,4.1,33.5-7.1c2.6-3.9,3.9-8.5,3.9-13.2
	C300.8,438.4,300.8,424.3,300.8,424.3z"/>
</svg>
