<?xml version="1.0" encoding="utf-8"?>
<!-- Generator: Adobe Illustrator 18.0.0, SVG Export Plug-In . SVG Version: 6.00 Build 0)  -->
<!DOCTYPE svg PUBLIC "-//W3C//DTD SVG 1.1//EN" "http://www.w3.org/Graphics/SVG/1.1/DTD/svg11.dtd">
<svg version="1.1" id="Layer_1" xmlns="http://www.w3.org/2000/svg" xmlns:xlink="http://www.w3.org/1999/xlink" x="0px" y="0px"
	 viewBox="0 0 32 48" enable-background="new 0 0 32 48" xml:space="preserve">
<path fill="none" stroke="#12100E" stroke-width="1.1875" d="M7.1,20.8v6.8h1.2l2-1.5v2.4h10V20h-10v2.4l-2-1.5H7.1z"/>
<g>
	<path d="M26.3,14.9h-3l-0.2,1.6c0.2,0,0.3,0,0.6,0c0.7,0,1.4,0.2,1.9,0.5c0.6,0.4,1,1,1,2c0,1.5-1.2,2.7-3.2,2.7
		c-0.9,0-1.7-0.2-2.1-0.5l0.3-1.1c0.3,0.2,1,0.4,1.7,0.4c0.9,0,1.7-0.5,1.7-1.4c0-0.9-0.7-1.5-2.2-1.5c-0.4,0-0.8,0-1.1,0.1l0.5-3.9
		h4V14.9z"/>
</g>
</svg>
