<?xml version="1.0" encoding="utf-8"?>
<!-- Generator: Adobe Illustrator 18.0.0, SVG Export Plug-In . SVG Version: 6.00 Build 0)  -->
<!DOCTYPE svg PUBLIC "-//W3C//DTD SVG 1.1//EN" "http://www.w3.org/Graphics/SVG/1.1/DTD/svg11.dtd">
<svg version="1.1" id="Layer_1" xmlns="http://www.w3.org/2000/svg" xmlns:xlink="http://www.w3.org/1999/xlink" x="0px" y="0px"
	 viewBox="0 0 32 48" enable-background="new 0 0 32 48" xml:space="preserve">
<path fill="none" stroke="#12100E" stroke-width="1.1875" d="M7.1,20.8v6.8h1.2l2-1.5v2.4h10V20h-10v2.4l-2-1.5H7.1z"/>
<g>
	<path d="M21.4,21.5v-0.9l0.9-0.9c1.8-1.7,2.7-2.6,2.7-3.7c0-0.7-0.4-1.3-1.4-1.3c-0.7,0-1.3,0.3-1.7,0.6l-0.4-1
		c0.6-0.5,1.4-0.8,2.4-0.8c1.7,0,2.6,1.1,2.6,2.4c0,1.4-1,2.5-2.3,3.7l-0.7,0.6v0h3.2v1.2H21.4z"/>
</g>
</svg>
