<?xml version="1.0" encoding="utf-8"?>
<!-- Generator: Adobe Illustrator 18.0.0, SVG Export Plug-In . SVG Version: 6.00 Build 0)  -->
<!DOCTYPE svg PUBLIC "-//W3C//DTD SVG 1.1//EN" "http://www.w3.org/Graphics/SVG/1.1/DTD/svg11.dtd">
<svg version="1.1" id="Layer_1" xmlns="http://www.w3.org/2000/svg" xmlns:xlink="http://www.w3.org/1999/xlink" x="0px" y="0px"
	 viewBox="0 0 612 792" enable-background="new 0 0 612 792" xml:space="preserve">
<path d="M433.9,466.8c0,9.7-7.9,17.6-17.6,17.6h-211c-9.7,0-17.6-7.9-17.6-17.6V361.3c0-9.7,7.9-17.6,17.6-17.6h20.6
	c14,0,27.4-5.6,37.3-15.5l14.6-14.6c3.3-3.3,7.7-5.1,12.4-5.2h41.2c4.7,0,9.1,1.9,12.4,5.2l14.6,14.6c9.9,9.9,23.3,15.5,37.3,15.5
	h20.6c9.7,0,17.6,7.9,17.6,17.6V466.8z M205.3,326.2c-19.4,0-35.2,15.7-35.2,35.2v105.5c0,19.4,15.7,35.2,35.2,35.2h211
	c19.4,0,35.2-15.7,35.2-35.2V361.3c0-19.4-15.7-35.2-35.2-35.2h-20.6c-9.3,0-18.3-3.7-24.9-10.3l-14.6-14.6
	c-6.6-6.6-15.5-10.3-24.9-10.3h-41.2c-9.3,0-18.3,3.7-24.9,10.3l-14.6,14.6c-6.6,6.6-15.5,10.3-24.9,10.3H205.3z"/>
<path d="M310.8,449.3c-24.3,0-44-19.7-44-44c0-24.3,19.7-44,44-44c24.3,0,44,19.7,44,44C354.8,429.6,335.1,449.3,310.8,449.3z
	 M310.8,466.8c34,0,61.5-27.6,61.5-61.5s-27.6-61.5-61.5-61.5s-61.5,27.6-61.5,61.5S276.8,466.8,310.8,466.8z M222.9,370.1
	c0,4.9-3.9,8.8-8.8,8.8s-8.8-3.9-8.8-8.8s3.9-8.8,8.8-8.8S222.9,365.3,222.9,370.1z"/>
</svg>
