<?xml version="1.0" encoding="utf-8"?>
<!-- Generator: Adobe Illustrator 18.0.0, SVG Export Plug-In . SVG Version: 6.00 Build 0)  -->
<!DOCTYPE svg PUBLIC "-//W3C//DTD SVG 1.1//EN" "http://www.w3.org/Graphics/SVG/1.1/DTD/svg11.dtd">
<svg version="1.1" id="Layer_1" xmlns="http://www.w3.org/2000/svg" xmlns:xlink="http://www.w3.org/1999/xlink" x="0px" y="0px"
	 viewBox="0 0 32 48" enable-background="new 0 0 32 48" xml:space="preserve">
<path d="M21.8,26.4v-1.1h-4.6v4.6h1.1v-3.5H21.8z M13.6,29.8h1.1v-4.6h-4.6v1.1h3.5V29.8z M10.2,21.6v1.1h4.6v-4.6h-1.1v3.5H10.2z
	 M18.4,18.2h-1.1v4.6h4.6v-1.1h-3.5V18.2z"/>
<path d="M9.7,18.5l0.9-0.9l4,4l-0.9,0.9L9.7,18.5z M21.5,30.3l-4-4l0.9-0.9l4,4L21.5,30.3z M10.5,30.3l-0.9-0.9l4-4l0.9,0.9
	L10.5,30.3z M21.5,17.7l0.9,0.9l-4,4l-0.9-0.9L21.5,17.7z"/>
</svg>
