<?xml version="1.0" encoding="utf-8"?>
<!-- Generator: Adobe Illustrator 18.0.0, SVG Export Plug-In . SVG Version: 6.00 Build 0)  -->
<!DOCTYPE svg PUBLIC "-//W3C//DTD SVG 1.1//EN" "http://www.w3.org/Graphics/SVG/1.1/DTD/svg11.dtd">
<svg version="1.1" id="Layer_1" xmlns="http://www.w3.org/2000/svg" xmlns:xlink="http://www.w3.org/1999/xlink" x="0px" y="0px"
	 viewBox="0 0 612 792" enable-background="new 0 0 612 792" xml:space="preserve">
<path d="M225,316c0-7.5,6-13.5,13.5-13.5h135c7.5,0,13.5,6,13.5,13.5v160c0,7.5-6,13.5-13.5,13.5h-135c-7.5,0-13.5-6-13.5-13.5V316z
	 M211.5,476c0,14.9,12.1,27,27,27h135c14.9,0,27-12.1,27-27V316c0-14.9-12.1-27-27-27h-135c-14.9,0-27,12.1-27,27V476z"/>
<path d="M252,464.5c-7.5,0-13.5-6-13.5-13.5v-27c0-7.5,6-13.5,13.5-13.5h108c7.5,0,13.5,6,13.5,13.5v27c0,7.5-6,13.5-13.5,13.5H252z
	"/>
</svg>
