<?xml version="1.0" encoding="utf-8"?>
<!-- Generator: Adobe Illustrator 18.0.0, SVG Export Plug-In . SVG Version: 6.00 Build 0)  -->
<!DOCTYPE svg PUBLIC "-//W3C//DTD SVG 1.1//EN" "http://www.w3.org/Graphics/SVG/1.1/DTD/svg11.dtd">
<svg version="1.1" id="Layer_1" xmlns="http://www.w3.org/2000/svg" xmlns:xlink="http://www.w3.org/1999/xlink" x="0px" y="0px"
	 viewBox="0 0 32 48" enable-background="new 0 0 32 48" xml:space="preserve">
<path d="M10,18.8l0.8-0.8l4.4,4.4l-0.8,0.8L10,18.8z M21.2,30l-4.4-4.4l0.8-0.8l4.4,4.4L21.2,30z M10.8,30L10,29.2l4.4-4.4l0.8,0.8
	L10.8,30z M21.2,18l0.8,0.8l-4.4,4.4l-0.8-0.8L21.2,18z"/>
<path d="M18,29.3v1.1h4.4V26h-1.1v3.3H18z M10.7,26H9.7v4.4H14v-1.1h-3.3V26z M14,18.7v-1.1H9.7V22h1.1v-3.3H14z M21.3,22h1.1v-4.4
	H18v1.1h3.3V22z"/>
</svg>
