<?xml version="1.0" encoding="utf-8"?>
<!-- Generator: Adobe Illustrator 18.0.0, SVG Export Plug-In . SVG Version: 6.00 Build 0)  -->
<!DOCTYPE svg PUBLIC "-//W3C//DTD SVG 1.1//EN" "http://www.w3.org/Graphics/SVG/1.1/DTD/svg11.dtd">
<svg version="1.1" id="Layer_1" xmlns="http://www.w3.org/2000/svg" xmlns:xlink="http://www.w3.org/1999/xlink" x="0px" y="0px"
	 viewBox="0 0 32 48" enable-background="new 0 0 32 48" xml:space="preserve">
<path d="M11.9,17.9c0.1-0.1,0.2-0.2,0.3-0.2h7.5c0.1,0,0.3,0.1,0.3,0.2l2.5,3.3c0.1,0.2,0.1,0.4,0,0.5l-6.2,8.3
	c-0.1,0.2-0.4,0.2-0.6,0.1c0,0-0.1-0.1-0.1-0.1l-6.2-8.3c-0.1-0.1-0.1-0.4,0-0.5C9.4,21.3,11.9,17.9,11.9,17.9z M21.4,21.1l-1.5-2
	l-0.6,2L21.4,21.1z M18.4,21.1l0.8-2.5h-6.4l0.8,2.5C13.6,21.1,18.4,21.1,18.4,21.1z M13.9,21.9l2.1,6.6l2.1-6.6
	C18.1,21.9,13.9,21.9,13.9,21.9z M12.8,21.1l-0.6-2l-1.5,2L12.8,21.1z M10.6,21.9l4.3,5.7L13,21.9L10.6,21.9L10.6,21.9z M17.2,27.6
	l4.3-5.7l-2.4,0C19,21.9,17.2,27.6,17.2,27.6z"/>
</svg>
