<?xml version="1.0" encoding="utf-8"?>
<!-- Generator: Adobe Illustrator 18.0.0, SVG Export Plug-In . SVG Version: 6.00 Build 0)  -->
<!DOCTYPE svg PUBLIC "-//W3C//DTD SVG 1.1//EN" "http://www.w3.org/Graphics/SVG/1.1/DTD/svg11.dtd">
<svg version="1.1" id="Layer_1" xmlns="http://www.w3.org/2000/svg" xmlns:xlink="http://www.w3.org/1999/xlink" x="0px" y="0px"
	 viewBox="0 0 612 792" enable-background="new 0 0 612 792" xml:space="preserve">
<path d="M272,476l-11.5,22.4c-1.5,2.9-5.6,2.8-7-0.1l-48.8-99.8c-1.1-2.2-1.1-4.8,0.1-7l50.6-98.9c1-1.9,3.4-2.7,5.3-1.7
	c0.7,0.4,1.4,1,1.7,1.8l11.1,22.6l-35.5,69.5c-3.4,6.6-3.4,14.4-0.2,21.1L272,476L272,476z M405.3,393.4c1.1,2.2,1.1,4.8-0.1,7
	l-50.6,98.9c-1,1.9-3.4,2.7-5.3,1.7c-0.7-0.4-1.3-1-1.7-1.7l-48.8-99.8c-1.1-2.2-1.1-4.8,0.1-7l50.5-98.9c1-1.9,3.3-2.7,5.3-1.7
	c0.8,0.4,1.4,1,1.7,1.8L405.3,393.4z"/>
<path d="M319,476.4l-11.5,22.4c-1.5,2.9-5.6,2.8-7-0.1L251.8,399c-1.1-2.2-1.1-4.8,0.1-7l50.6-98.9c1-1.9,3.4-2.7,5.3-1.7
	c0.7,0.4,1.4,1,1.7,1.8l11.1,22.6L285,385.3c-3.4,6.6-3.4,14.4-0.2,21.1L319,476.4L319,476.4z"/>
</svg>
