<?xml version="1.0" encoding="utf-8"?>
<!-- Generator: Adobe Illustrator 18.0.0, SVG Export Plug-In . SVG Version: 6.00 Build 0)  -->
<!DOCTYPE svg PUBLIC "-//W3C//DTD SVG 1.1//EN" "http://www.w3.org/Graphics/SVG/1.1/DTD/svg11.dtd">
<svg version="1.1" id="Layer_1" xmlns="http://www.w3.org/2000/svg" xmlns:xlink="http://www.w3.org/1999/xlink" x="0px" y="0px"
	 viewBox="0 0 612 792" enable-background="new 0 0 612 792" xml:space="preserve">
<path d="M411.7,385.4c0-0.6,0-1.1,0-1.7c0-3-0.9-6-1.4-8.9l0,0c-1.9-8.8-5.1-17.3-9.3-25.3l0,0c-14.5-29.7-42-51-74.4-57.5l0,0
	l-8.9-1.4h-1.7h-3.1H312l-6.7-0.9c-3.6,0-7.2,0-10.6,0H293l-8.9,2.1l0,0c-41.7,8.6-74.3,41.2-82.9,82.9l0,0c-0.5,3-1,6-1.4,8.9
	c0,0.6,0,1.1,0,1.7c0,3.5,0,7.1,0,10.6s0,7.2,0,10.6c0,0.6,0,1.1,0,1.7c0,3,0.9,6,1.4,8.9l0,0c1.7,8.8,4.5,17.3,8.4,25.3l0,0
	c14.5,29.7,42,51,74.4,57.5l0,0l8.9,1.4l1.7,0.9h3.6h1.5c1.9,0,3.7,0,5.6,0c3.6,0,7.2,0,10.6-0.5h1.7l8.8-1.6l0,0
	c41.7-8.6,74.3-41.2,82.9-82.9l0,0c0.5-3,1-6,1.4-8.9c0.2-0.6,0.5-1.2,0.9-1.7c0-3.5,0.5-7.1,0.5-10.6S411.7,388.8,411.7,385.4z
	 M317.6,312l5.3,0.7l0,0c19.2,4.1,36.4,14.7,48.7,30.1h-72.5L317.6,312z M288.5,312.8L288.5,312.8l4.3-0.6l-36.6,62.5l-17.9-31
	c12.4-15.9,30-26.8,49.7-30.9L288.5,312.8z M226.5,427.9c-1.9-4.7-3.4-9.6-4.5-14.6l0,0c0-2.3-0.9-4.8-1.1-7.2
	c-0.1-0.4-0.1-0.9,0-1.3c-0.6-5.7-0.6-11.5,0-17.2c-0.1-0.4-0.1-0.9,0-1.3c0-2.4,0.6-4.9,1.1-7.2l0,0c0.9-4.8,2.3-9.4,4-13.9
	l36.7,62.7H226.5z M293.5,480.1l-5.3-0.7l0,0c-19.4-4-36.9-14.7-49.2-30.2h72.5L293.5,480.1z M286.9,427.9L268.5,396l18.4-31.9h36.8
	l18.4,31.9l-18.4,31.9H286.9z M322.6,479.3L322.6,479.3l-4.3,0.6l36.1-62.6l17.9,31C359.9,464.2,342.3,475.1,322.6,479.3z
	 M390,404.8c0.1,0.4,0.1,0.9,0,1.3c0,2.4-0.6,4.9-1.1,7.2l0,0c-1,4.6-2.3,9.1-4,13.5l-37-62.7h35.8c1.9,4.7,3.4,9.6,4.5,14.6l0,0
	c0,2.3,0.9,4.8,1.1,7.2c0.1,0.4,0.1,0.9,0,1.3c0.6,5.7,0.6,11.5,0,17.2L390,404.8z"/>
</svg>
