<?xml version="1.0" encoding="utf-8"?>
<!-- Generator: Adobe Illustrator 18.0.0, SVG Export Plug-In . SVG Version: 6.00 Build 0)  -->
<!DOCTYPE svg PUBLIC "-//W3C//DTD SVG 1.1//EN" "http://www.w3.org/Graphics/SVG/1.1/DTD/svg11.dtd">
<svg version="1.1" id="Layer_1" xmlns="http://www.w3.org/2000/svg" xmlns:xlink="http://www.w3.org/1999/xlink" x="0px" y="0px"
	 viewBox="0 0 612 792" enable-background="new 0 0 612 792" xml:space="preserve">
<path d="M317.9,462.5l27.3-27.3c4.7-4.7,12.2-4.7,16.8,0c4.7,4.7,4.7,12.2,0,16.8l-47.6,47.6c-4.7,4.7-12.2,4.7-16.8,0L250,452
	c-4.7-4.7-4.7-12.2,0-16.8c4.7-4.7,12.2-4.7,16.8,0l27.3,27.3v-133l-27.3,27.3c-4.7,4.7-12.2,4.7-16.8,0c-4.7-4.7-4.7-12.2,0-16.8
	l47.6-47.6c4.7-4.7,12.2-4.7,16.8,0L362,340c4.7,4.7,4.7,12.2,0,16.8c-4.7,4.7-12.2,4.7-16.8,0l-27.3-27.3V462.5z"/>
</svg>
