<?xml version="1.0" encoding="utf-8"?>
<!-- Generator: Adobe Illustrator 18.0.0, SVG Export Plug-In . SVG Version: 6.00 Build 0)  -->
<!DOCTYPE svg PUBLIC "-//W3C//DTD SVG 1.1//EN" "http://www.w3.org/Graphics/SVG/1.1/DTD/svg11.dtd">
<svg version="1.1" id="Layer_1" xmlns="http://www.w3.org/2000/svg" xmlns:xlink="http://www.w3.org/1999/xlink" x="0px" y="0px"
	 viewBox="0 0 53 54" enable-background="new 0 0 53 54" xml:space="preserve">
<g id="SVGRepo_iconCarrier">
	<path fill="#010101" d="M10.7,3.9c-0.6,0-1,0.5-1,1v3.6L3,13.3c-0.3,0.2-0.4,0.5-0.4,0.8v4.1c0,0.6,0.5,1,1,1H26c0.6,0,1-0.5,1-1
		v-4.1c0-0.3-0.2-0.6-0.4-0.8l-6.7-4.8V4.9c0-0.6-0.5-1-1-1H10.7z M7.6,24.3c-0.6,0-1,0.5-1,1v1H2.5c-0.6,0-1,0.5-1,1v22.5
		c0,0.6,0.5,1,1,1h24.4c0.6,0,1.2-0.5,1.2-1.2V27.5c0-0.6-0.5-1.1-1.1-1.1h-4v-0.9c0-0.6-0.5-1.2-1.2-1.2H7.6z M31.2,26.4
		c-0.1,0-0.5,0-0.8,0.3c-0.3,0.3-0.3,0.6-0.3,0.7v7.2h20.5v-7.2c0-0.6-0.5-1-1-1h-2.1h-9.2H31.2z M6.6,30.5h16.3c0.6,0,1,0.5,1,1
		v14.3c0,0.6-0.5,1-1,1H6.6c-0.6,0-1-0.5-1-1V31.5C5.6,30.9,6,30.5,6.6,30.5z M34.2,30.5h12.2c0.6,0,1,0.5,1,1c0,0.6-0.5,1-1,1H34.2
		c-0.6,0-1-0.5-1-1C33.1,30.9,33.6,30.5,34.2,30.5z M7.6,32.5v12.3h14.3V32.5H7.6z M30.1,36.6v13.3c0,0.1,0,0.4,0.3,0.7
		c0.3,0.3,0.7,0.3,0.8,0.3h18.4c0.6,0,1-0.5,1-1V36.6H30.1z M34.2,39.7c0.6,0,1,0.5,1,1v5.1c0,0.6-0.5,1-1,1s-1-0.5-1-1v-5.1
		C33.1,40.1,33.6,39.7,34.2,39.7z"/>
</g>
</svg>
