<?xml version="1.0" encoding="utf-8"?>
<!-- Generator: Adobe Illustrator 18.0.0, SVG Export Plug-In . SVG Version: 6.00 Build 0)  -->
<!DOCTYPE svg PUBLIC "-//W3C//DTD SVG 1.1//EN" "http://www.w3.org/Graphics/SVG/1.1/DTD/svg11.dtd">
<svg version="1.1" id="Layer_1" xmlns="http://www.w3.org/2000/svg" xmlns:xlink="http://www.w3.org/1999/xlink" x="0px" y="0px"
	 viewBox="0 0 53 54" enable-background="new 0 0 53 54" xml:space="preserve">
<g id="SVGRepo_iconCarrier">
	<g>
		<g>
			<path fill="#010101" d="M5,38.5V41c0,0.9,0.8,1.7,1.7,1.7s1.7-0.8,1.7-1.7v-2.5H5z"/>
		</g>
	</g>
	<g>
		<g>
			<path fill="#010101" d="M44.8,38.5V41c0,0.9,0.8,1.7,1.7,1.7s1.7-0.8,1.7-1.7v-2.5H44.8z"/>
		</g>
	</g>
	<g>
		<g>
			<rect x="3.1" y="25.2" fill="#010101" width="46.9" height="12.1"/>
		</g>
	</g>
	<g>
		<g>
			<path fill="#010101" d="M41.7,10H11.4c-1.4,0-2.5,1-2.5,2.4V17l2.2,0c0-0.1,0-0.2,0-0.3c0-1,0.8-1.8,1.8-1.8h27.4
				c1,0,1.8,0.8,1.8,1.8c0,0.1,0,0.2,0,0.3h2.2v-4.5C44.2,11.1,43,10,41.7,10z"/>
		</g>
	</g>
	<g>
		<g>
			<polygon fill="#010101" points="44.9,19.7 8.1,19.7 6.1,22.8 47,22.8 			"/>
		</g>
	</g>
</g>
</svg>
