<?xml version="1.0" encoding="utf-8"?>
<!-- Generator: Adobe Illustrator 18.0.0, SVG Export Plug-In . SVG Version: 6.00 Build 0)  -->
<!DOCTYPE svg PUBLIC "-//W3C//DTD SVG 1.1//EN" "http://www.w3.org/Graphics/SVG/1.1/DTD/svg11.dtd">
<svg version="1.1" id="Layer_1" xmlns="http://www.w3.org/2000/svg" xmlns:xlink="http://www.w3.org/1999/xlink" x="0px" y="0px"
	 viewBox="0 0 53 54" enable-background="new 0 0 53 54" xml:space="preserve">
<g id="SVGRepo_iconCarrier">
	<g>
		<path fill="#010101" stroke="#010101" stroke-width="1.228800e-003" d="M51.6,24.6c0.3,2.7-2.5,5.1-4.9,4.3
			c-0.3,0.6-0.6,1.3-0.8,2.3c-0.5,2.1-0.3,1.5-0.1,3.5c0.3,2.7,0,4.6-1.8,5.4v1H8.6v-1c-1.4-0.5-2-1.8-1.7-4C7.3,31.9,7,30.6,6,29
			c-1.8,0.1-3.1-0.4-4-1.3c-1.7-1.9-1.2-4.6,0.9-5.9c0.4-0.3,0.9-0.5,1.5-0.6c1.2-0.2,2-0.3,3.1,0.3c2.3,1.1,4,3.8,5.1,7l11.8,0.3
			c0.8,0.1,1.3,0.5,1.7,1c0.3-0.5,0.8-0.8,1.5-1c3.7-0.2,6.3,0.3,9,0.3h3.1c0.6,0,1-0.3,1.1-0.8c0.8-2.3,2.1-4.2,3.7-5.8
			c1.1-1.1,1.3-1.5,2.8-1.4C49.2,21.1,51.2,22.4,51.6,24.6L51.6,24.6z M8.1,20.5L8.1,20.5c1.2-2.7,3.1-3.3,5.6-2.4l2.7,9.4h-2.9
			l-0.9-1.8l-1-1.9c-0.4-0.8-1-1.4-1.6-1.9C9.5,21.2,8.8,20.8,8.1,20.5L8.1,20.5z M14.8,18.1C14.8,18.1,14.9,18.1,14.8,18.1
			c1.1-2.4,3.8-3.1,6.1-2.1c0,0,0,0,0,0l0.6,11.9h-3.9L14.8,18.1L14.8,18.1z M22.1,15.8c0.7-3,7.7-2.4,8.3-0.3
			c0.1,0-0.7,11.2-0.8,12.5h-1c-0.7,0-0.8,0-1.5,0.2c-0.3,0.1-0.7,0.2-1,0.3l-0.9-0.3C24.6,27.9,24.6,28,24,28h-1.3L22.1,15.8
			L22.1,15.8L22.1,15.8z M31.3,16.3C31.4,16.3,31.4,16.3,31.3,16.3c2.6-1.4,6.1-0.4,6.4,1.4l-0.2,0.1l-2.8,10.2h-4.1L31.3,16.3
			L31.3,16.3z M38.6,18.5c0,0,0.1,0,0.1,0c2-1.5,4.8-0.9,6.1,2.3h0c-2.6,2.2-4.4,4.6-5.1,7.3H36L38.6,18.5L38.6,18.5z"/>
	</g>
</g>
</svg>
