<svg width="28" height="28" viewBox="0 0 28 28" fill="none" xmlns="http://www.w3.org/2000/svg">
<path d="M27.2666 4.82759C26.9045 3.90849 26.431 3.12865 25.6512 2.34881C24.8714 1.56897 24.0915 1.08621 23.1724 0.733422C22.2812 0.38992 21.26 0.148541 19.7745 0.0835544C18.2798 0.0185676 17.8064 0 14 0C10.1936 0 9.72016 0.0185676 8.22546 0.0835544C6.73077 0.148541 5.71883 0.38992 4.82758 0.733422C3.90849 1.09549 3.12865 1.56897 2.34881 2.34881C1.56896 3.12865 1.08621 3.90849 0.733423 4.82759C0.389921 5.71883 0.148545 6.74005 0.0835581 8.22546C0.0185713 9.72016 0 10.1936 0 14C0 17.8064 0.0185713 18.2798 0.0835581 19.7745C0.148545 21.2692 0.389921 22.2812 0.733423 23.1724C1.09549 24.0915 1.56896 24.8714 2.34881 25.6512C3.12865 26.431 3.90849 26.9138 4.82758 27.2666C5.71883 27.6101 6.74005 27.8515 8.22546 27.9164C9.72016 27.9814 10.1936 28 14 28C17.8064 28 18.2798 27.9814 19.7745 27.9164C21.2692 27.8515 22.2812 27.6101 23.1724 27.2666C24.0915 26.9045 24.8714 26.431 25.6512 25.6512C26.431 24.8714 26.9138 24.0915 27.2666 23.1724C27.6101 22.2812 27.8515 21.2599 27.9164 19.7745C27.9814 18.2798 28 17.8064 28 14C28 10.1936 27.9814 9.72016 27.9164 8.22546C27.8515 6.74005 27.6101 5.71883 27.2666 4.82759ZM25.3912 19.6724C25.3263 21.0371 25.1035 21.7798 24.9085 22.2719C24.6578 22.9218 24.3515 23.3952 23.8594 23.8873C23.3674 24.3793 22.9032 24.6857 22.244 24.9363C21.752 25.1313 21.0093 25.3541 19.6446 25.4191C18.1684 25.4841 17.7228 25.5027 13.9814 25.5027C10.2401 25.5027 9.79443 25.4841 8.3183 25.4191C6.95358 25.3541 6.21088 25.1313 5.71884 24.9363C5.06897 24.6857 4.59549 24.3793 4.10345 23.8873C3.6114 23.3952 3.30504 22.931 3.05438 22.2719C2.85942 21.7798 2.6366 21.0371 2.57161 19.6724C2.50663 18.1963 2.48806 17.7507 2.48806 14.0093C2.48806 10.2679 2.50663 9.82228 2.57161 8.34615C2.6366 6.98143 2.85942 6.23873 3.05438 5.74668C3.30504 5.09682 3.6114 4.62334 4.10345 4.1313C4.59549 3.63926 5.05969 3.33289 5.71884 3.08223C6.21088 2.88727 6.95358 2.66446 8.3183 2.59947C9.79443 2.53448 10.2401 2.51592 13.9814 2.51592C17.7228 2.51592 18.1684 2.53448 19.6446 2.59947C21.0093 2.66446 21.752 2.88727 22.244 3.08223C22.8939 3.33289 23.3674 3.63926 23.8594 4.1313C24.3515 4.62334 24.6578 5.08753 24.9085 5.74668C25.1035 6.23873 25.3263 6.98143 25.3912 8.34615C25.4562 9.82228 25.4748 10.2679 25.4748 14.0093C25.4748 17.7507 25.4655 18.1963 25.3912 19.6724ZM13.9814 6.81432C10.008 6.81432 6.78647 10.0358 6.78647 14.0093C6.78647 17.9828 10.008 21.2042 13.9814 21.2042C17.9549 21.2042 21.1764 17.9828 21.1764 14.0093C21.1764 10.0358 17.9642 6.81432 13.9814 6.81432ZM13.9814 18.679C11.4005 18.679 9.31167 16.5902 9.31167 14.0093C9.31167 11.4284 11.4005 9.33952 13.9814 9.33952C16.5623 9.33952 18.6512 11.4284 18.6512 14.0093C18.6512 16.5902 16.5623 18.679 13.9814 18.679ZM21.4642 4.84615C20.5358 4.84615 19.7838 5.59814 19.7838 6.52653C19.7838 7.45491 20.5358 8.2069 21.4642 8.2069C22.3926 8.2069 23.1446 7.45491 23.1446 6.52653C23.1446 5.59814 22.3926 4.84615 21.4642 4.84615Z" fill="#141212"/>
</svg>
